<?xml version="1.0" standalone="no"?>
<!DOCTYPE svg PUBLIC "-//W3C//DTD SVG 20010904//EN"
 "http://www.w3.org/TR/2001/REC-SVG-20010904/DTD/svg10.dtd">
<svg version="1.0" xmlns="http://www.w3.org/2000/svg"
 width="44.000000pt" height="41.000000pt" viewBox="0 0 44.000000 41.000000"
 preserveAspectRatio="xMidYMid meet">

<g transform="translate(0.000000,41.000000) scale(0.100000,-0.100000)"
fill="#000000" stroke="none">
<path d="M50 390 c-24 -24 -25 -38 -4 -68 20 -28 69 -30 84 -3 16 31 12 59
-12 75 -30 21 -44 20 -68 -4z"/>
<path d="M322 403 c-7 -3 -18 -16 -23 -30 -13 -36 12 -73 49 -73 35 0 52 17
52 51 0 40 -41 67 -78 52z"/>
<path d="M165 327 c-38 -32 -38 -92 0 -124 29 -26 55 -29 88 -11 32 17 46 39
46 73 0 34 -14 56 -46 73 -33 18 -59 15 -88 -11z"/>
<path d="M17 283 c-2 -4 -8 -23 -12 -41 -12 -59 32 -80 93 -45 26 15 28 19 19
44 -7 18 -20 29 -36 32 -14 2 -33 7 -42 11 -10 4 -19 4 -22 -1z"/>
<path d="M363 277 c-24 -6 -43 -16 -43 -23 0 -7 -2 -18 -5 -26 -8 -20 58 -52
89 -44 22 5 26 12 26 40 0 38 -8 67 -19 65 -3 -1 -25 -7 -48 -12z"/>
<path d="M91 167 c-13 -15 -24 -42 -27 -74 -10 -77 1 -83 155 -83 85 0 131 4
139 12 7 7 12 31 12 54 0 89 -36 128 -95 100 -41 -20 -82 -20 -115 -1 -34 20
-43 19 -69 -8z"/>
</g>
</svg>
