<?xml version="1.0" standalone="no"?>
<!DOCTYPE svg PUBLIC "-//W3C//DTD SVG 20010904//EN"
 "http://www.w3.org/TR/2001/REC-SVG-20010904/DTD/svg10.dtd">
<svg version="1.0" xmlns="http://www.w3.org/2000/svg"
 width="378.000000pt" height="278.000000pt" viewBox="0 0 378.000000 278.000000"
 preserveAspectRatio="xMidYMid meet">

<g transform="translate(0.000000,278.000000) scale(0.100000,-0.100000)"
fill="#000000" stroke="none">
<path d="M0 1390 l0 -1390 1890 0 1890 0 0 1390 0 1390 -1890 0 -1890 0 0
-1390z m1748 934 c81 -18 127 -18 199 1 31 8 77 15 101 15 36 0 43 -3 40 -17
-2 -13 -17 -20 -53 -25 -28 -4 -65 -10 -82 -13 l-33 -6 0 -354 0 -355 24 10
c44 17 171 28 231 20 33 -4 61 -6 63 -5 1 1 -5 16 -14 34 -38 76 31 141 101
95 l25 -16 0 280 0 281 -52 11 c-29 6 -73 14 -98 18 -30 5 -45 13 -45 22 0 21
106 16 177 -7 l53 -18 5 -191 5 -191 31 -26 c39 -33 89 -127 103 -195 12 -59
2 -158 -24 -232 -10 -29 -12 -47 -5 -54 5 -5 10 -36 10 -67 0 -86 -6 -89 -159
-89 -85 0 -131 4 -139 12 -7 7 -12 41 -12 81 0 60 2 70 20 74 11 3 20 12 20
19 0 12 -65 14 -395 14 -330 0 -395 -2 -395 -14 0 -7 9 -16 20 -19 18 -4 20
-14 20 -74 0 -40 -5 -74 -12 -81 -14 -14 -255 -17 -277 -3 -18 11 -27 111 -13
137 8 15 5 38 -9 89 -31 108 -24 221 19 308 19 38 48 79 68 95 l34 27 0 182
c0 209 -2 205 88 224 132 28 242 29 360 3z m532 -154 c6 -12 10 -42 8 -68 -4
-62 -24 -72 -151 -72 -92 0 -99 2 -124 26 -21 21 -25 32 -20 65 9 66 14 69
153 69 114 0 124 -2 134 -20z m-6 -219 c15 -23 -26 -32 -140 -29 -104 3 -119
5 -122 21 -3 15 8 17 127 17 71 0 132 -4 135 -9z m-6 -83 c8 -8 9 -15 1 -25
-12 -14 -211 -19 -243 -7 -19 7 -21 30 -3 37 26 11 233 7 245 -5z m-79 -91
c18 -22 2 -27 -91 -27 -67 0 -88 3 -88 13 0 24 12 27 90 27 53 0 81 -4 89 -13z
m-1156 -571 c12 -2 51 -9 87 -15 79 -13 170 -39 170 -49 0 -4 -51 -4 -112 1
-138 9 -174 4 -181 -26 -4 -12 -11 -116 -17 -232 -10 -198 -5 -338 16 -482 6
-36 4 -43 -10 -43 -27 0 -64 44 -72 86 -18 97 20 596 52 678 7 18 3 19 -57 12
-69 -8 -183 -30 -211 -41 -12 -5 -20 -1 -25 11 -8 23 43 69 94 84 21 6 80 14
130 17 82 5 93 8 100 27 7 21 7 21 11 -1 2 -14 12 -25 25 -27z m512 -364 c6
-4 18 -20 28 -35 10 -15 43 -39 73 -54 76 -36 97 -65 91 -126 -10 -108 -129
-153 -202 -77 -30 32 -28 55 3 27 10 -10 34 -17 54 -17 48 0 81 36 81 88 0 49
-3 54 -57 91 -45 30 -56 30 -56 2 0 -30 -48 -119 -86 -161 -67 -74 -127 -90
-169 -45 l-23 26 -34 -21 c-95 -58 -187 26 -157 144 10 40 84 144 95 133 2 -2
-5 -22 -16 -45 -29 -60 -27 -142 4 -179 22 -25 27 -26 62 -18 38 10 39 11 45
66 6 51 65 187 76 175 3 -3 0 -28 -6 -56 -18 -83 -14 -157 9 -180 24 -24 57
-26 88 -5 28 20 53 107 56 188 2 77 13 99 41 79z m656 -124 c-2 -100 10 -147
23 -94 15 58 68 185 81 189 30 12 45 -18 59 -121 15 -109 21 -127 32 -96 38
108 70 180 89 202 22 24 25 26 40 11 9 -9 21 -52 29 -105 17 -113 36 -154 74
-154 15 0 38 7 51 16 20 14 22 22 16 64 -11 79 27 147 100 181 57 27 101 24
132 -7 20 -20 24 -31 19 -56 -3 -17 -12 -38 -19 -46 -18 -23 -88 -52 -124 -52
-25 0 -33 -4 -33 -17 2 -66 120 -97 205 -53 51 26 55 19 10 -17 -39 -32 -95
-53 -141 -53 -38 1 -113 35 -120 55 -6 14 -12 11 -40 -16 -28 -27 -42 -33 -81
-33 -68 -1 -84 25 -119 194 -5 24 -6 24 -17 5 -6 -11 -25 -58 -42 -104 -17
-47 -39 -90 -49 -95 -26 -16 -51 20 -65 96 -26 135 -23 134 -62 18 -29 -85
-40 -106 -56 -108 -16 -2 -24 5 -32 30 -12 39 -31 159 -31 206 0 36 32 75 57
70 13 -3 15 -20 14 -110z m-332 67 c-39 -66 -22 -171 33 -209 50 -35 120 -8
134 51 11 41 -23 94 -73 118 -47 21 -54 38 -24 55 92 49 176 -78 127 -193 -44
-107 -198 -127 -255 -33 -43 72 -33 146 29 208 47 47 55 48 29 3z"/>
<path d="M1465 2295 c-5 -2 -36 -9 -67 -15 l-58 -11 0 -280 0 -280 30 16 c36
19 74 19 89 2 20 -25 24 -73 8 -104 l-16 -30 97 5 c65 3 118 -1 159 -11 l63
-14 2 156 c3 139 5 156 21 159 16 3 17 -10 17 -162 l0 -166 35 0 35 0 0 355 0
355 -35 0 -35 0 0 -158 c0 -87 -3 -161 -6 -165 -3 -3 -12 -3 -20 0 -11 4 -14
38 -14 168 l0 163 -50 11 c-47 10 -232 14 -255 6z m224 -119 c7 -8 11 -37 9
-67 -4 -72 -21 -81 -156 -77 -97 3 -105 5 -124 28 -22 27 -21 88 2 115 18 21
252 22 269 1z m-6 -223 c4 -3 2 -12 -4 -20 -8 -9 -43 -13 -130 -13 -112 0
-139 6 -124 30 7 11 247 14 258 3z m-5 -85 c8 -8 9 -15 1 -25 -12 -14 -211
-19 -243 -7 -19 7 -21 30 -3 37 26 11 233 7 245 -5z m1 -91 c18 -22 2 -27 -85
-27 -79 0 -103 8 -89 30 10 16 160 13 174 -3z"/>
<path d="M1450 2115 l0 -35 105 0 105 0 0 35 0 35 -105 0 -105 0 0 -35z"/>
<path d="M1273 1837 c-52 -66 -68 -117 -68 -212 0 -58 6 -110 18 -147 l18 -58
84 0 85 0 -6 28 c-3 15 -13 49 -21 75 l-15 48 36 39 c38 42 42 55 26 80 -8 13
-15 12 -54 -9 -64 -36 -75 -24 -78 92 l-3 92 -22 -28z"/>
<path d="M2390 1766 c0 -112 -9 -124 -71 -88 -51 29 -59 28 -59 -10 0 -22 9
-42 31 -64 l31 -32 -16 -48 c-9 -26 -16 -60 -16 -76 l0 -29 83 3 82 3 18 70
c27 103 20 214 -18 282 -15 29 -36 60 -46 69 -18 17 -19 14 -19 -80z"/>
<path d="M1467 1551 c-46 -10 -47 -11 -36 -38 8 -23 11 -23 174 -23 157 0 165
1 165 20 0 13 -11 22 -37 30 -49 14 -217 21 -266 11z"/>
<path d="M2005 1554 c-67 -17 -85 -27 -85 -45 0 -18 9 -19 165 -19 163 0 166
0 174 23 5 12 5 26 0 31 -9 10 -221 18 -254 10z"/>
<path d="M1810 1505 c0 -10 11 -15 35 -15 24 0 35 5 35 15 0 10 -11 15 -35 15
-24 0 -35 -5 -35 -15z"/>
<path d="M1230 1335 l0 -45 110 0 110 0 0 45 0 45 -110 0 -110 0 0 -45z"/>
<path d="M2240 1335 l0 -45 110 0 110 0 0 45 0 45 -110 0 -110 0 0 -45z"/>
<path d="M2040 2115 l0 -35 105 0 105 0 0 35 0 35 -105 0 -105 0 0 -35z"/>
<path d="M2807 788 c-19 -15 -47 -78 -47 -108 0 -19 4 -21 32 -15 43 10 64 24
77 52 28 61 -13 107 -62 71z"/>
</g>
</svg>
